{
	"asset":{
		"generator":"Khronos glTF Blender I/O v4.4.56",
		"version":"2.0"
	},
	"scene":0,
	"scenes":[
		{
			"name":"Scene",
			"nodes":[
				0
			]
		}
	],
	"nodes":[
		{
			"mesh":0,
			"name":"asteroid_ocean",
			"rotation":[
				-0.06889533251523972,
				-0.9913385510444641,
				0.02319648675620556,
				0.10937677323818207
			],
			"scale":[
				0.03605758398771286,
				0.03605758398771286,
				0.03605757653713226
			],
			"translation":[
				0.07688169181346893,
				0.1605338156223297,
				0.01931902766227722
			]
		}
	],
	"materials":[
		{
			"doubleSided":true,
			"name":"Material",
			"pbrMetallicRoughness":{
				"baseColorTexture":{
					"index":0
				},
				"metallicFactor":0
			}
		}
	],
	"meshes":[
		{
			"name":"B\u00e9zierCurve.001",
			"primitives":[
				{
					"attributes":{
						"POSITION":0,
						"NORMAL":1,
						"TEXCOORD_0":2,
						"COLOR_0":3,
						"COLOR_1":4
					},
					"indices":5,
					"material":0
				}
			]
		}
	],
	"textures":[
		{
			"sampler":0,
			"source":0
		}
	],
	"images":[
		{
			"mimeType":"image/png",
			"name":"asteroid_ocean_mat",
			"uri":"asteroid_ocean_mat.png"
		}
	],
	"accessors":[
		{
			"bufferView":0,
			"componentType":5126,
			"count":892,
			"max":[
				24.096874237060547,
				19.56926727294922,
				26.294788360595703
			],
			"min":[
				-19.38707160949707,
				-27.838329315185547,
				-23.99796485900879
			],
			"type":"VEC3"
		},
		{
			"bufferView":1,
			"componentType":5126,
			"count":892,
			"type":"VEC3"
		},
		{
			"bufferView":2,
			"componentType":5126,
			"count":892,
			"type":"VEC2"
		},
		{
			"bufferView":3,
			"componentType":5121,
			"count":892,
			"normalized":true,
			"type":"VEC4"
		},
		{
			"bufferView":4,
			"componentType":5123,
			"count":892,
			"normalized":true,
			"type":"VEC4"
		},
		{
			"bufferView":5,
			"componentType":5123,
			"count":2667,
			"type":"SCALAR"
		}
	],
	"bufferViews":[
		{
			"buffer":0,
			"byteLength":10704,
			"byteOffset":0,
			"target":34962
		},
		{
			"buffer":0,
			"byteLength":10704,
			"byteOffset":10704,
			"target":34962
		},
		{
			"buffer":0,
			"byteLength":7136,
			"byteOffset":21408,
			"target":34962
		},
		{
			"buffer":0,
			"byteLength":3568,
			"byteOffset":28544,
			"target":34962
		},
		{
			"buffer":0,
			"byteLength":7136,
			"byteOffset":32112,
			"target":34962
		},
		{
			"buffer":0,
			"byteLength":5334,
			"byteOffset":39248,
			"target":34963
		}
	],
	"samplers":[
		{
			"magFilter":9729,
			"minFilter":9987
		}
	],
	"buffers":[
		{
			"byteLength":44584,
			"uri":"asteroid_ocean.bin"
		}
	]
}
