# Blender 3.4.1
# www.blender.org
mtllib arrow.mtl
o Cube
v 1.000000 -1.431450 0.975166
v 1.000000 -1.396546 -1.024529
v 1.000000 1.396546 1.024529
v 1.000000 1.431450 -0.975166
v 2.414214 -0.017452 0.999848
v 2.414214 0.017452 -0.999848
v 1.000000 -0.488785 0.991621
v 1.000000 0.453880 1.008075
v 1.000000 -0.453880 -1.008075
v 1.000000 0.488785 -0.991621
v -2.000000 -0.488785 0.991621
v -2.000000 0.453880 1.008075
v -2.000000 -0.453880 -1.008075
v -2.000000 0.488785 -0.991621
vn -1.0000 -0.0000 -0.0000
vn 0.7071 -0.7070 -0.0123
vn 0.7071 0.7070 0.0123
vn -0.0000 -0.0175 0.9998
vn -0.0000 0.0175 -0.9998
vn -0.0000 0.9998 0.0175
vn -0.0000 -0.9998 -0.0175
vt 0.375000 0.250000
vt 0.625000 0.250000
vt 0.375000 0.750000
vt 0.625000 0.750000
vt 0.375000 0.500000
vt 0.625000 0.500000
vt 0.375000 0.416667
vt 0.375000 0.583333
vt 0.625000 0.416667
vt 0.625000 0.583333
vt 0.375000 0.416667
vt 0.375000 0.583333
vt 0.625000 0.416667
vt 0.625000 0.583333
s 0
f 7/7/1 9/9/1 2/2/1 1/1/1
f 1/1/2 2/2/2 6/6/2 5/5/2
f 5/5/3 6/6/3 4/4/3 3/3/3
f 1/1/4 5/5/4 3/3/4 8/8/4 7/7/4
f 6/6/5 2/2/5 9/9/5 10/10/5 4/4/5
f 3/3/1 4/4/1 10/10/1 8/8/1
f 8/8/6 10/10/6 14/14/6 12/12/6
f 12/12/1 14/14/1 13/13/1 11/11/1
f 9/9/7 7/7/7 11/11/7 13/13/7
f 10/10/5 9/9/5 13/13/5 14/14/5
f 7/7/4 8/8/4 12/12/4 11/11/4
