{
	"asset":{
		"generator":"Khronos glTF Blender I/O v4.4.56",
		"version":"2.0"
	},
	"scene":0,
	"scenes":[
		{
			"name":"Scene",
			"nodes":[
				0
			]
		}
	],
	"nodes":[
		{
			"mesh":0,
			"name":"asteroid_crystal",
			"rotation":[
				0.7071068286895752,
				0,
				0,
				0.7071068286895752
			],
			"scale":[
				0.009999999776482582,
				0.009999999776482582,
				0.009999999776482582
			]
		}
	],
	"materials":[
		{
			"doubleSided":true,
			"name":"Material.001",
			"pbrMetallicRoughness":{
				"baseColorTexture":{
					"index":0
				},
				"metallicFactor":0
			}
		}
	],
	"meshes":[
		{
			"name":"Mesh.001",
			"primitives":[
				{
					"attributes":{
						"POSITION":0,
						"NORMAL":1,
						"TEXCOORD_0":2
					},
					"indices":3,
					"material":0
				}
			]
		}
	],
	"textures":[
		{
			"sampler":0,
			"source":0
		}
	],
	"images":[
		{
			"mimeType":"image/png",
			"name":"asteroid_crystal_mat",
			"uri":"asteroid_crystal_mat.png"
		}
	],
	"accessors":[
		{
			"bufferView":0,
			"componentType":5126,
			"count":891,
			"max":[
				465.0928039550781,
				507.98883056640625,
				521.796630859375
			],
			"min":[
				-517.2943725585938,
				-481.2838134765625,
				-463.08740234375
			],
			"type":"VEC3"
		},
		{
			"bufferView":1,
			"componentType":5126,
			"count":891,
			"type":"VEC3"
		},
		{
			"bufferView":2,
			"componentType":5126,
			"count":891,
			"type":"VEC2"
		},
		{
			"bufferView":3,
			"componentType":5123,
			"count":2940,
			"type":"SCALAR"
		}
	],
	"bufferViews":[
		{
			"buffer":0,
			"byteLength":10692,
			"byteOffset":0,
			"target":34962
		},
		{
			"buffer":0,
			"byteLength":10692,
			"byteOffset":10692,
			"target":34962
		},
		{
			"buffer":0,
			"byteLength":7128,
			"byteOffset":21384,
			"target":34962
		},
		{
			"buffer":0,
			"byteLength":5880,
			"byteOffset":28512,
			"target":34963
		}
	],
	"samplers":[
		{
			"magFilter":9729,
			"minFilter":9987
		}
	],
	"buffers":[
		{
			"byteLength":34392,
			"uri":"Asteroid_crystal.bin"
		}
	]
}
